<svg width="41" height="44" viewBox="0 0 41 44" fill="none" xmlns="http://www.w3.org/2000/svg">
<path d="M18.2476 18.6606C16.3067 20.9813 19.4957 23.967 21.9106 23.5623C22.948 23.3885 24.8307 21.8699 25.0981 19.7973C25.2756 18.4214 25.3495 17.5556 24.1607 16.5945C22.9885 15.6468 21.788 15.6366 20.6234 16.5945C19.661 17.386 18.6044 18.147 18.2154 18.6996" stroke="white" stroke-linecap="round"/>
<path d="M25.4124 8.04478C21.5867 -8.94483 -3.39971 8.70928 13.3005 19.9861C14.2322 20.6152 16.5148 20.1422 14.876 17.5155C13.2372 14.8887 9.06718 13.8388 6.9983 15.2507C-5.29557 23.6411 4.17232 36.9752 13.3005 36.3812C15.3244 36.2495 19.3593 32.6009 19.5579 32.2026C20.3373 31.7998 22.7339 27.3889 20.9821 26.4913C18.7178 25.331 18.1597 29.3941 18.863 31.7356C20.991 38.8202 27.8143 45.4916 34.124 42.0811C39.8579 38.9819 40.8142 30.6444 37.1449 25.0927C35.1093 22.0126 31.7281 18.8854 29.3842 19.9861C27.0404 21.0868 28.7071 22.4246 29.9051 22.4246C31.103 22.4246 39.7895 17.7008 38.0167 10.9272C35.7915 2.42518 25.2017 9.58714 25.4124 12.4713" stroke="white" stroke-linecap="round"/>
</svg>