<svg width="23" height="18" viewBox="0 0 23 18" fill="none" xmlns="http://www.w3.org/2000/svg">
<path d="M11.7043 3.51472L6.04748 9.17157C5.84713 9.37192 5.61143 9.47186 5.34037 9.47139C5.06931 9.47091 4.83361 9.37098 4.63327 9.17157C4.43292 8.97123 4.33298 8.73552 4.33345 8.46447C4.33392 8.19341 4.43386 7.95771 4.63327 7.75736L10.9972 1.3934C11.1976 1.19305 11.4335 1.09288 11.705 1.09288C11.9766 1.09288 12.212 1.19305 12.4114 1.3934L18.7754 7.75736C18.9757 7.95771 19.0759 8.19364 19.0759 8.46517C19.0759 8.7367 18.9757 8.97217 18.7754 9.17157C18.5751 9.37192 18.3394 9.47186 18.0683 9.47139C17.7972 9.47091 17.5615 9.37098 17.3612 9.17157L11.7043 3.51472ZM11.7043 10.5858L6.04748 16.2426C5.84713 16.443 5.61143 16.5429 5.34037 16.5425C5.06931 16.542 4.83361 16.442 4.63327 16.2426C4.43292 16.0423 4.33298 15.8066 4.33345 15.5355C4.33392 15.2645 4.43386 15.0288 4.63327 14.8284L10.9972 8.46447C11.1976 8.26412 11.4335 8.16395 11.705 8.16395C11.9766 8.16395 12.212 8.26412 12.4114 8.46447L18.7754 14.8284C18.9757 15.0288 19.0759 15.2647 19.0759 15.5362C19.0759 15.8078 18.9757 16.0432 18.7754 16.2426C18.5751 16.443 18.3394 16.5429 18.0683 16.5425C17.7972 16.542 17.5615 16.442 17.3612 16.2426L11.7043 10.5858Z" fill="#42412D"/>
</svg>
