<svg width="22" height="18" viewBox="0 0 22 18" fill="none" xmlns="http://www.w3.org/2000/svg">
<path d="M10.4363 14.4853L16.0931 8.82843C16.2935 8.62808 16.5292 8.52814 16.8003 8.52861C17.0713 8.52909 17.307 8.62902 17.5074 8.82843C17.7077 9.02877 17.8076 9.26448 17.8072 9.53553C17.8067 9.80659 17.7068 10.0423 17.5074 10.2426L11.1434 16.6066C10.9431 16.8069 10.7071 16.9071 10.4356 16.9071C10.1641 16.9071 9.92859 16.8069 9.72918 16.6066L3.36522 10.2426C3.16488 10.0423 3.0647 9.80636 3.0647 9.53483C3.0647 9.2633 3.16488 9.02783 3.36522 8.82843C3.56557 8.62808 3.80127 8.52814 4.07233 8.52861C4.34339 8.52909 4.57909 8.62902 4.77944 8.82843L10.4363 14.4853ZM10.4363 7.41421L16.0931 1.75736C16.2935 1.55701 16.5292 1.45707 16.8003 1.45755C17.0713 1.45802 17.307 1.55796 17.5074 1.75736C17.7077 1.95771 17.8076 2.19341 17.8072 2.46447C17.8067 2.73552 17.7068 2.97123 17.5074 3.17157L11.1434 9.53553C10.9431 9.73588 10.7071 9.83605 10.4356 9.83605C10.1641 9.83605 9.92859 9.73588 9.72918 9.53553L3.36522 3.17157C3.16488 2.97123 3.0647 2.73529 3.0647 2.46376C3.0647 2.19223 3.16488 1.95676 3.36522 1.75736C3.56557 1.55701 3.80127 1.45707 4.07233 1.45755C4.34339 1.45802 4.57909 1.55796 4.77944 1.75736L10.4363 7.41421Z" fill="#42412D"/>
</svg>