<svg width="25" height="24" viewBox="0 0 25 24" fill="none" xmlns="http://www.w3.org/2000/svg">
<path d="M13.8689 12L18.1689 7.71C18.3572 7.5217 18.463 7.2663 18.463 7C18.463 6.7337 18.3572 6.47831 18.1689 6.29C17.9806 6.1017 17.7252 5.99591 17.4589 5.99591C17.1926 5.99591 16.9372 6.1017 16.7489 6.29L12.4589 10.59L8.16892 6.29C7.98062 6.1017 7.72522 5.99591 7.45892 5.99591C7.19262 5.99591 6.93723 6.1017 6.74892 6.29C6.56062 6.47831 6.45483 6.7337 6.45483 7C6.45483 7.2663 6.56062 7.5217 6.74892 7.71L11.0489 12L6.74892 16.29C6.65519 16.383 6.5808 16.4936 6.53003 16.6154C6.47926 16.7373 6.45312 16.868 6.45312 17C6.45312 17.132 6.47926 17.2627 6.53003 17.3846C6.5808 17.5064 6.65519 17.617 6.74892 17.71C6.84189 17.8037 6.95249 17.8781 7.07435 17.9289C7.19621 17.9797 7.32691 18.0058 7.45892 18.0058C7.59094 18.0058 7.72164 17.9797 7.8435 17.9289C7.96536 17.8781 8.07596 17.8037 8.16892 17.71L12.4589 13.41L16.7489 17.71C16.8419 17.8037 16.9525 17.8781 17.0743 17.9289C17.1962 17.9797 17.3269 18.0058 17.4589 18.0058C17.5909 18.0058 17.7216 17.9797 17.8435 17.9289C17.9654 17.8781 18.076 17.8037 18.1689 17.71C18.2627 17.617 18.337 17.5064 18.3878 17.3846C18.4386 17.2627 18.4647 17.132 18.4647 17C18.4647 16.868 18.4386 16.7373 18.3878 16.6154C18.337 16.4936 18.2627 16.383 18.1689 16.29L13.8689 12Z" fill="#222222"/>
</svg>
