<svg width="131" height="48" viewBox="0 0 131 48" fill="none" xmlns="http://www.w3.org/2000/svg">
    <path d="M18.2476 20.6606C16.3067 22.9813 19.4957 25.967 21.9106 25.5623C22.948 25.3885 24.8307 23.8699 25.0981 21.7973C25.2756 20.4214 25.3495 19.5556 24.1607 18.5945C22.9885 17.6468 21.788 17.6366 20.6234 18.5945C19.661 19.386 18.6044 20.147 18.2154 20.6996" stroke="white" stroke-width="0.956567" stroke-linecap="round"/>
    <path d="M25.4124 10.0448C21.5867 -6.94483 -3.39971 10.7093 13.3005 21.9861C14.2322 22.6152 16.5148 22.1422 14.876 19.5155C13.2372 16.8887 9.06718 15.8388 6.9983 17.2507C-5.29557 25.6411 4.17232 38.9752 13.3005 38.3812C15.3244 38.2495 19.3593 34.6009 19.5579 34.2026C20.3373 33.7998 22.7339 29.3889 20.9821 28.4913C18.7178 27.331 18.1597 31.3941 18.863 33.7356C20.991 40.8202 27.8143 47.4916 34.124 44.0811C39.8579 40.9819 40.8142 32.6444 37.1449 27.0927C35.1093 24.0126 31.7281 20.8854 29.3842 21.9861C27.0404 23.0868 28.7071 24.4246 29.9051 24.4246C31.103 24.4246 39.7895 19.7008 38.0167 12.9272C35.7915 4.42518 25.2017 11.5871 25.4124 14.4713" stroke="white" stroke-width="0.956567" stroke-linecap="round"/>
    <path d="M60.9346 19.98L60.9106 21H50.7346V4.02H60.9106V5.04H51.9706V11.904H59.4106V12.9H51.9706V19.98H60.9346ZM65.2124 3.54V21H64.0604V3.54H65.2124ZM78.8373 9.06L73.7973 21H72.7893L67.7493 9.06H68.6493C68.7613 9.06 68.8533 9.092 68.9253 9.156C68.9973 9.212 69.0453 9.276 69.0693 9.348L73.0173 18.768C73.1373 19.12 73.2333 19.468 73.3053 19.812C73.3773 19.468 73.4773 19.12 73.6053 18.768L77.5653 9.348C77.6053 9.26 77.6573 9.192 77.7213 9.144C77.7933 9.088 77.8773 9.06 77.9733 9.06H78.8373ZM82.5681 9.06V21H81.4281V9.06H82.5681ZM83.0601 4.944C83.0601 5.088 83.0281 5.224 82.9641 5.352C82.9081 5.472 82.8321 5.58 82.7361 5.676C82.6401 5.772 82.5281 5.848 82.4001 5.904C82.2721 5.96 82.1361 5.988 81.9921 5.988C81.8481 5.988 81.7121 5.96 81.5841 5.904C81.4561 5.848 81.3441 5.772 81.2481 5.676C81.1521 5.58 81.0761 5.472 81.0201 5.352C80.9641 5.224 80.9361 5.088 80.9361 4.944C80.9361 4.8 80.9641 4.664 81.0201 4.536C81.0761 4.4 81.1521 4.284 81.2481 4.188C81.3441 4.092 81.4561 4.016 81.5841 3.96C81.7121 3.904 81.8481 3.876 81.9921 3.876C82.1361 3.876 82.2721 3.904 82.4001 3.96C82.5281 4.016 82.6401 4.092 82.7361 4.188C82.8321 4.284 82.9081 4.4 82.9641 4.536C83.0281 4.664 83.0601 4.8 83.0601 4.944ZM94.7879 11.628C94.3319 10.94 93.8239 10.456 93.2639 10.176C92.7119 9.896 92.0799 9.756 91.3679 9.756C90.6639 9.756 90.0479 9.884 89.5199 10.14C88.9919 10.396 88.5479 10.76 88.1879 11.232C87.8359 11.696 87.5679 12.256 87.3839 12.912C87.2079 13.56 87.1199 14.276 87.1199 15.06C87.1199 16.836 87.4439 18.144 88.0919 18.984C88.7479 19.816 89.6919 20.232 90.9239 20.232C91.7079 20.232 92.4239 20.028 93.0719 19.62C93.7199 19.212 94.2919 18.64 94.7879 17.904V11.628ZM95.9279 3.54V21H95.3039C95.0959 21 94.9759 20.896 94.9439 20.688L94.8239 18.804C94.2959 19.524 93.6799 20.096 92.9759 20.52C92.2719 20.944 91.4799 21.156 90.5999 21.156C89.1279 21.156 87.9839 20.648 87.1679 19.632C86.3519 18.616 85.9439 17.092 85.9439 15.06C85.9439 14.188 86.0559 13.376 86.2799 12.624C86.5119 11.864 86.8479 11.208 87.2879 10.656C87.7279 10.096 88.2679 9.656 88.9079 9.336C89.5559 9.016 90.2999 8.856 91.1399 8.856C91.9479 8.856 92.6479 9.004 93.2399 9.3C93.8319 9.596 94.3479 10.036 94.7879 10.62V3.54H95.9279ZM106.543 15.228C105.407 15.268 104.427 15.36 103.603 15.504C102.787 15.64 102.111 15.828 101.575 16.068C101.047 16.308 100.655 16.596 100.399 16.932C100.143 17.26 100.015 17.636 100.015 18.06C100.015 18.46 100.079 18.808 100.207 19.104C100.343 19.392 100.519 19.632 100.735 19.824C100.959 20.008 101.215 20.144 101.503 20.232C101.791 20.32 102.091 20.364 102.403 20.364C102.867 20.364 103.291 20.316 103.675 20.22C104.067 20.116 104.427 19.976 104.755 19.8C105.091 19.616 105.403 19.4 105.691 19.152C105.979 18.904 106.263 18.636 106.543 18.348V15.228ZM99.5226 10.752C100.147 10.128 100.803 9.656 101.491 9.336C102.179 9.016 102.959 8.856 103.831 8.856C104.471 8.856 105.031 8.96 105.511 9.168C105.991 9.368 106.387 9.66 106.699 10.044C107.019 10.42 107.259 10.88 107.419 11.424C107.579 11.96 107.659 12.56 107.659 13.224V21H107.203C106.963 21 106.815 20.888 106.759 20.664L106.591 19.128C106.263 19.448 105.935 19.736 105.607 19.992C105.287 20.248 104.951 20.464 104.599 20.64C104.247 20.816 103.867 20.952 103.459 21.048C103.051 21.144 102.603 21.192 102.115 21.192C101.707 21.192 101.311 21.132 100.927 21.012C100.543 20.892 100.199 20.708 99.8946 20.46C99.5986 20.212 99.3586 19.896 99.1746 19.512C98.9986 19.12 98.9106 18.652 98.9106 18.108C98.9106 17.604 99.0546 17.136 99.3426 16.704C99.6306 16.272 100.083 15.896 100.699 15.576C101.315 15.256 102.103 15 103.063 14.808C104.031 14.616 105.191 14.504 106.543 14.472V13.224C106.543 12.12 106.303 11.272 105.823 10.68C105.351 10.08 104.647 9.78 103.711 9.78C103.135 9.78 102.643 9.86 102.235 10.02C101.835 10.18 101.495 10.356 101.215 10.548C100.935 10.74 100.707 10.916 100.531 11.076C100.355 11.236 100.207 11.316 100.087 11.316C99.9986 11.316 99.9266 11.296 99.8706 11.256C99.8146 11.216 99.7666 11.164 99.7266 11.1L99.5226 10.752ZM51.9706 35.856H52.9786C53.1306 35.856 53.2626 35.852 53.3746 35.844C53.4866 35.828 53.5866 35.804 53.6746 35.772C53.7706 35.74 53.8546 35.696 53.9266 35.64C54.0066 35.576 54.0906 35.5 54.1786 35.412L61.0306 28.368C61.1506 28.232 61.2666 28.14 61.3786 28.092C61.4986 28.044 61.6386 28.02 61.7986 28.02H62.7826L55.3666 35.64C55.2146 35.8 55.0786 35.924 54.9586 36.012C54.8466 36.1 54.7186 36.172 54.5746 36.228C54.7426 36.276 54.8946 36.352 55.0306 36.456C55.1666 36.552 55.3026 36.68 55.4386 36.84L63.2506 45H62.2546C62.0466 45 61.8946 44.976 61.7986 44.928C61.7106 44.872 61.6226 44.788 61.5346 44.676L54.3586 37.332C54.2706 37.244 54.1866 37.168 54.1066 37.104C54.0346 37.04 53.9506 36.988 53.8546 36.948C53.7666 36.9 53.6586 36.868 53.5306 36.852C53.4106 36.828 53.2546 36.816 53.0626 36.816H51.9706V45H50.7346V28.02H51.9706V35.856ZM74.0836 33.06V45H73.4476C73.2476 45 73.1316 44.896 73.0996 44.688L72.9916 42.912C72.4396 43.6 71.7996 44.152 71.0716 44.568C70.3516 44.984 69.5476 45.192 68.6596 45.192C67.9956 45.192 67.4156 45.088 66.9196 44.88C66.4236 44.672 66.0116 44.372 65.6836 43.98C65.3556 43.588 65.1076 43.116 64.9396 42.564C64.7716 42.012 64.6876 41.388 64.6876 40.692V33.06H65.8396V40.692C65.8396 41.812 66.0956 42.692 66.6076 43.332C67.1196 43.964 67.8996 44.28 68.9476 44.28C69.7236 44.28 70.4476 44.084 71.1196 43.692C71.7996 43.292 72.4036 42.74 72.9316 42.036V33.06H74.0836ZM79.2749 27.54V45H78.1229V27.54H79.2749ZM84.4638 42.396C84.9278 43.084 85.4358 43.568 85.9878 43.848C86.5478 44.12 87.1758 44.256 87.8718 44.256C88.5838 44.256 89.2038 44.128 89.7318 43.872C90.2678 43.616 90.7118 43.252 91.0638 42.78C91.4238 42.3 91.6918 41.72 91.8678 41.04C92.0438 40.36 92.1318 39.596 92.1318 38.748C92.1318 37.1 91.8038 35.86 91.1478 35.028C90.4918 34.196 89.5718 33.78 88.3878 33.78C87.5398 33.78 86.7998 33.984 86.1678 34.392C85.5358 34.8 84.9678 35.368 84.4638 36.096V42.396ZM84.4638 35.136C84.9838 34.432 85.5918 33.88 86.2878 33.48C86.9838 33.072 87.7918 32.868 88.7118 32.868C89.4318 32.868 90.0758 33 90.6438 33.264C91.2118 33.528 91.6918 33.908 92.0838 34.404C92.4838 34.9 92.7878 35.512 92.9958 36.24C93.2038 36.96 93.3078 37.78 93.3078 38.7C93.3078 39.668 93.1918 40.552 92.9598 41.352C92.7278 42.144 92.3878 42.824 91.9398 43.392C91.4998 43.952 90.9598 44.388 90.3198 44.7C89.6798 45.004 88.9478 45.156 88.1237 45.156C87.2758 45.156 86.5518 44.996 85.9518 44.676C85.3598 44.348 84.8478 43.864 84.4158 43.224L84.3318 44.7C84.3078 44.9 84.1998 45 84.0078 45H83.3118V27.54H84.4638V35.136ZM103.215 39.228C102.079 39.268 101.099 39.36 100.275 39.504C99.4585 39.64 98.7825 39.828 98.2465 40.068C97.7185 40.308 97.3265 40.596 97.0705 40.932C96.8145 41.26 96.6865 41.636 96.6865 42.06C96.6865 42.46 96.7505 42.808 96.8785 43.104C97.0145 43.392 97.1905 43.632 97.4065 43.824C97.6305 44.008 97.8865 44.144 98.1745 44.232C98.4625 44.32 98.7625 44.364 99.0745 44.364C99.5385 44.364 99.9625 44.316 100.347 44.22C100.739 44.116 101.099 43.976 101.427 43.8C101.763 43.616 102.075 43.4 102.363 43.152C102.651 42.904 102.935 42.636 103.215 42.348V39.228ZM96.1945 34.752C96.8185 34.128 97.4745 33.656 98.1625 33.336C98.8505 33.016 99.6305 32.856 100.503 32.856C101.143 32.856 101.703 32.96 102.183 33.168C102.663 33.368 103.059 33.66 103.371 34.044C103.691 34.42 103.931 34.88 104.091 35.424C104.251 35.96 104.331 36.56 104.331 37.224V45H103.875C103.635 45 103.487 44.888 103.431 44.664L103.263 43.128C102.935 43.448 102.607 43.736 102.279 43.992C101.959 44.248 101.623 44.464 101.271 44.64C100.919 44.816 100.539 44.952 100.131 45.048C99.7225 45.144 99.2745 45.192 98.7865 45.192C98.3785 45.192 97.9825 45.132 97.5985 45.012C97.2145 44.892 96.8705 44.708 96.5665 44.46C96.2705 44.212 96.0305 43.896 95.8465 43.512C95.6705 43.12 95.5825 42.652 95.5825 42.108C95.5825 41.604 95.7265 41.136 96.0145 40.704C96.3025 40.272 96.7545 39.896 97.3705 39.576C97.9865 39.256 98.7745 39 99.7345 38.808C100.703 38.616 101.863 38.504 103.215 38.472V37.224C103.215 36.12 102.975 35.272 102.495 34.68C102.023 34.08 101.319 33.78 100.383 33.78C99.8065 33.78 99.3145 33.86 98.9065 34.02C98.5065 34.18 98.1665 34.356 97.8865 34.548C97.6065 34.74 97.3785 34.916 97.2025 35.076C97.0265 35.236 96.8785 35.316 96.7585 35.316C96.6705 35.316 96.5985 35.296 96.5425 35.256C96.4865 35.216 96.4385 35.164 96.3985 35.1L96.1945 34.752ZM109.308 27.54V38.184H109.86C109.972 38.184 110.076 38.168 110.172 38.136C110.276 38.104 110.388 38.028 110.508 37.908L115.296 33.36C115.376 33.264 115.464 33.192 115.56 33.144C115.656 33.088 115.776 33.06 115.92 33.06H116.928L111.66 38.064C111.516 38.232 111.36 38.364 111.192 38.46C111.32 38.524 111.428 38.6 111.516 38.688C111.612 38.768 111.704 38.864 111.792 38.976L117.324 45H116.328C116.216 45 116.112 44.984 116.016 44.952C115.928 44.912 115.844 44.836 115.764 44.724L110.748 39.348C110.684 39.276 110.62 39.216 110.556 39.168C110.5 39.12 110.44 39.084 110.376 39.06C110.312 39.028 110.236 39.008 110.148 39C110.068 38.984 109.968 38.976 109.848 38.976H109.308V45H108.156V27.54H109.308ZM123.524 32.868C124.38 32.868 125.144 33.016 125.816 33.312C126.496 33.6 127.068 34.012 127.532 34.548C127.996 35.084 128.348 35.732 128.588 36.492C128.836 37.244 128.96 38.088 128.96 39.024C128.96 39.96 128.836 40.804 128.588 41.556C128.348 42.308 127.996 42.952 127.532 43.488C127.068 44.024 126.496 44.436 125.816 44.724C125.144 45.012 124.38 45.156 123.524 45.156C122.668 45.156 121.9 45.012 121.22 44.724C120.548 44.436 119.976 44.024 119.504 43.488C119.04 42.952 118.684 42.308 118.436 41.556C118.196 40.804 118.076 39.96 118.076 39.024C118.076 38.088 118.196 37.244 118.436 36.492C118.684 35.732 119.04 35.084 119.504 34.548C119.976 34.012 120.548 33.6 121.22 33.312C121.9 33.016 122.668 32.868 123.524 32.868ZM123.524 44.256C124.236 44.256 124.856 44.136 125.384 43.896C125.92 43.648 126.364 43.296 126.716 42.84C127.076 42.384 127.344 41.836 127.52 41.196C127.696 40.548 127.784 39.824 127.784 39.024C127.784 38.232 127.696 37.512 127.52 36.864C127.344 36.216 127.076 35.664 126.716 35.208C126.364 34.744 125.92 34.388 125.384 34.14C124.856 33.892 124.236 33.768 123.524 33.768C122.812 33.768 122.188 33.892 121.652 34.14C121.124 34.388 120.68 34.744 120.32 35.208C119.968 35.664 119.7 36.216 119.516 36.864C119.34 37.512 119.252 38.232 119.252 39.024C119.252 39.824 119.34 40.548 119.516 41.196C119.7 41.836 119.968 42.384 120.32 42.84C120.68 43.296 121.124 43.648 121.652 43.896C122.188 44.136 122.812 44.256 123.524 44.256Z" fill="white"/>
</svg>
