<svg width="24" height="18" viewBox="0 0 24 18" fill="none" xmlns="http://www.w3.org/2000/svg">
<path d="M9.81313 1.91994L7.17313 13.0199L6.69313 10.4399C7.65313 10.4399 8.43313 10.7399 9.03313 11.3399C9.63313 11.8999 9.93313 12.6599 9.93313 13.6199C9.93313 14.5799 9.63313 15.3599 9.03313 15.9599C8.43313 16.5599 7.69313 16.8599 6.81313 16.8599C5.85313 16.8599 5.07313 16.5599 4.47313 15.9599C3.91313 15.3199 3.63313 14.5399 3.63313 13.6199C3.63313 13.2599 3.65313 12.9399 3.69313 12.6599C3.73313 12.3799 3.81313 12.0399 3.93313 11.6399C4.05313 11.2399 4.21313 10.7599 4.41312 10.1999L6.93313 1.91994H9.81313ZM20.0131 1.91994L17.3731 13.0199L16.8931 10.4399C17.8531 10.4399 18.6331 10.7399 19.2331 11.3399C19.8331 11.8999 20.1331 12.6599 20.1331 13.6199C20.1331 14.5799 19.8331 15.3599 19.2331 15.9599C18.6331 16.5599 17.8931 16.8599 17.0131 16.8599C16.0531 16.8599 15.2731 16.5599 14.6731 15.9599C14.1131 15.3199 13.8331 14.5399 13.8331 13.6199C13.8331 13.2599 13.8531 12.9399 13.8931 12.6599C13.9331 12.3799 14.0131 12.0399 14.1331 11.6399C14.2531 11.2399 14.4131 10.7599 14.6131 10.1999L17.1331 1.91994H20.0131Z" fill="#F5F6F0"/>
</svg>
